HIERARCHY
ROOT RootJoint
{
    OFFSET   0.000000   0.000000   0.000000
    CHANNELS 6 Xposition Yposition Zposition Xrotation Yrotation Zrotation
    JOINT pelvis_lowerback
    {
        OFFSET   0.000000   0.093605   0.000000
        CHANNELS 3 Xrotation Yrotation Zrotation
        JOINT lowerback_torso
        {
            OFFSET   0.000000   0.100000   0.000000
            CHANNELS 3 Xrotation Yrotation Zrotation
            JOINT torso_head
            {
                OFFSET   0.000000   0.282350   0.000000
                CHANNELS 3 Xrotation Yrotation Zrotation
                End Site
                {
                    OFFSET   0.000000   0.192650   0.000000
                }
            }
            JOINT rTorso_Clavicle
            {
                OFFSET  -0.001000   0.157500   0.000000
                CHANNELS 3 Xrotation Yrotation Zrotation
                JOINT rShoulder
                {
                    OFFSET  -0.117647   0.000000   0.000000
                    CHANNELS 3 Xrotation Yrotation Zrotation
                    JOINT rElbow
                    {
                        OFFSET  -0.245000   0.000000   0.000000
                        CHANNELS 3 Xrotation Yrotation Zrotation
                        JOINT rWrist
                        {
                            OFFSET  -0.240000   0.000000   0.000000
                            CHANNELS 3 Xrotation Yrotation Zrotation
                            End Site
                            {
                                OFFSET  -0.116353  -0.002500   0.000000
                            }
                        }
                    }
                }
            }
            JOINT lTorso_Clavicle
            {
                OFFSET   0.001000   0.157500   0.000000
                CHANNELS 3 Xrotation Yrotation Zrotation
                JOINT lShoulder
                {
                    OFFSET   0.117647   0.000000   0.000000
                    CHANNELS 3 Xrotation Yrotation Zrotation
                    JOINT lElbow
                    {
                        OFFSET   0.245000   0.000000   0.000000
                        CHANNELS 3 Xrotation Yrotation Zrotation
                        JOINT lWrist
                        {
                            OFFSET   0.240000   0.000000   0.000000
                            CHANNELS 3 Xrotation Yrotation Zrotation
                            End Site
                            {
                                OFFSET   0.116353  -0.002500   0.000000
                            }
                        }
                    }
                }
            }
        }
    }
    JOINT rHip
    {
        OFFSET  -0.100000  -0.051395   0.000000
        CHANNELS 3 Xrotation Yrotation Zrotation
        JOINT rKnee
        {
            OFFSET   0.000000  -0.410000   0.000000
            CHANNELS 3 Xrotation Yrotation Zrotation
            JOINT rAnkle
            {
                OFFSET   0.000000  -0.390000   0.000000
                CHANNELS 3 Xrotation Yrotation Zrotation
                JOINT rToeJoint
                {
                    OFFSET   0.000000  -0.050000   0.130000
                    CHANNELS 3 Xrotation Yrotation Zrotation
                    End Site
                    {
                        OFFSET  -0.010000   0.002000   0.060000
                    }
                }
            }
        }
    }
    JOINT lHip
    {
        OFFSET   0.100000  -0.051395   0.000000
        CHANNELS 3 Xrotation Yrotation Zrotation
        JOINT lKnee
        {
            OFFSET   0.000000  -0.410000   0.000000
            CHANNELS 3 Xrotation Yrotation Zrotation
            JOINT lAnkle
            {
                OFFSET   0.000000  -0.390000   0.000000
                CHANNELS 3 Xrotation Yrotation Zrotation
                JOINT lToeJoint
                {
                    OFFSET   0.000000  -0.050000   0.130000
                    CHANNELS 3 Xrotation Yrotation Zrotation
                    End Site
                    {
                        OFFSET   0.010000   0.002000   0.060000
                    }
                }
            }
        }
    }
}
MOTION
Frames: 14
Frame Time:   0.008333
 -2.376719   0.925631   3.975860   0.000000   0.000000   0.000000   0.000000   0.000000   0.000000   0.000000   0.000000   0.000000   0.000000   0.000000   0.000000   0.000000   0.000000   0.000000   0.000000   0.000000   0.000000   0.000000   0.000000   0.000000   0.000000   0.000000   0.000000   0.000000   0.000000   0.000000   0.000000   0.000000   0.000000   0.000000   0.000000   0.000000   0.000000   0.000000   0.000000   0.000000   0.000000   0.000000   0.000000   0.000000   0.000000   0.000000   0.000000   0.000000   0.000000   0.000000   0.000000   0.000000   0.000000   0.000000   0.000000   0.000000   0.000000   0.000000   0.000000   0.000000   0.000000   0.000000   0.000000
 -2.376772   0.926153   3.975280   0.258853  -0.042485   0.013861  -0.192431   0.077960  -0.065111   0.066512  -0.078393   0.013002  -0.157287   0.089406   0.074478   0.135250  -0.255680   0.257734   0.622550   0.096074   2.168804   0.003366   0.161294  -0.001252   0.317080   0.110010  -2.553141   0.191969   0.197158  -0.514034   0.939245  -0.081863  -1.708486   0.001027  -0.052006   0.000573   0.339639  -0.149715   2.477270  -0.905784   0.124107  -0.148716   1.488455   0.001780   0.001024  -1.074956  -0.132677  -0.123050  -0.191509  -0.000431   0.000085  -0.675608  -0.117889   0.147604   1.343786  -0.001916  -0.001853  -1.301325   0.086779   0.016266   0.300329  -0.000461  -0.000195
 -2.376891   0.927011   3.974861   0.460899  -0.076366   0.030276  -0.344325   0.132044  -0.144216   0.173862  -0.174680   0.015277  -0.295603   0.175696   0.148432   0.271360  -0.541330   1.244730   1.222155   0.176612   4.864528   0.007219   0.303958  -0.002085   0.662504   0.219747  -4.320332   0.387017   0.404615  -1.748107   1.823731  -0.163618  -3.881828   0.002025  -0.091661   0.000884   0.716195  -0.268657   4.204776  -1.803556   0.245256  -0.412273   3.010232   0.004815   0.001751  -2.076271  -0.257246  -0.241545  -0.402938  -0.001025   0.000140  -1.219204  -0.238030   0.424571   2.753607  -0.005253  -0.003186  -2.516667   0.169239   0.033989   0.525037  -0.000978  -0.000292
 -2.377040   0.927778   3.974610   0.649298  -0.098168   0.046464  -0.490583   0.161158  -0.226221   0.281022  -0.285823   0.013853  -0.417353   0.255983   0.214349   0.405214  -0.836064   2.709581   1.779462   0.257201   7.785622   0.010474   0.428007  -0.002515   0.997395   0.291945  -5.203779   0.576183   0.603922  -3.429228   2.645984  -0.266137  -6.303199   0.002803  -0.124109   0.001034   1.079988  -0.366240   5.083610  -2.687435   0.362952  -0.769354   4.434846   0.008253   0.002099  -3.010815  -0.373163  -0.355125  -0.601627  -0.001618   0.000159  -1.653655  -0.352490   0.805510   4.111036  -0.009066  -0.003738  -3.649649   0.247791   0.052899   0.727716  -0.001521  -0.000323
 -2.377203   0.928148   3.974498   0.833907  -0.110362   0.062152  -0.635774   0.168680  -0.306993   0.375807  -0.409337   0.010634  -0.527965   0.330646   0.274240   0.538888  -1.132042   4.448671   2.296486   0.344519  10.785718   0.012865   0.537377  -0.002666   1.317254   0.336877  -5.445728   0.759436   0.789262  -5.363572   3.407681  -0.396866  -8.832315   0.003415  -0.153683   0.001105   1.428917  -0.465369   5.334123  -3.558864   0.479845  -1.201946   5.752310   0.011585   0.002119  -3.884444  -0.480877  -0.463753  -0.791445  -0.002176   0.000156  -1.998885  -0.461469   1.268110   5.400803  -0.012808  -0.003691  -4.707030   0.322360   0.072685   0.908583  -0.002007  -0.000311
 -2.377372   0.927901   3.974503   1.015142  -0.116674   0.077448  -0.780281   0.157916  -0.384990   0.456544  -0.542722   0.006365  -0.629426   0.400130   0.329498   0.673865  -1.425731   6.324038   2.775447   0.439658  13.769762   0.014386   0.634574  -0.002632   1.621779   0.363637  -5.263429   0.936396   0.959597  -7.418249   4.110861  -0.555228 -11.374559   0.003896  -0.182244   0.001135   1.763514  -0.576326   5.165024  -4.415056   0.597930  -1.693802   6.968912   0.014524   0.001877  -4.701172  -0.580849  -0.567402  -0.971740  -0.002666   0.000143  -2.267561  -0.565425   1.793535   6.623009  -0.016174  -0.003252  -5.693955   0.392841   0.093056   1.070469  -0.002403  -0.000279
 -2.377543   0.926886   3.974601   1.191493  -0.121080   0.092483  -0.923713   0.131841  -0.459705   0.524304  -0.683651   0.001332  -0.722837   0.464828   0.380907   0.811237  -1.715464   8.243267   3.218787   0.541045  16.677292   0.015134   0.721110  -0.002477   1.911331   0.376537  -4.815825   1.106735   1.115933  -9.503621   4.758081  -0.736893 -13.868279   0.004255  -0.210292   0.001140   2.083911  -0.700888   4.732169  -5.252609   0.718501  -2.230332   8.092733   0.016924   0.001441  -5.464544  -0.673539  -0.666084  -1.141480  -0.003065   0.000127  -2.469734  -0.664507   2.365829   7.780250  -0.019008  -0.002599  -6.615035   0.459213   0.113768   1.216328  -0.002701  -0.000240
 -2.377786   0.924457   3.974080   1.374350  -0.180309   0.007017  -0.837909   0.109341  -0.410477   0.450051  -0.774263  -0.003305  -0.971088   0.500403   0.364091   0.952335  -1.841911   9.673780   3.714389   0.656491  19.259739   0.011560   0.705406  -0.001879   2.182279   0.357994  -3.482059   1.188376   1.229068 -10.870636   5.171102  -0.995567 -16.304161   0.005464  -0.271630   0.001317   2.349396  -0.778557   3.387310  -6.362290   0.656957  -2.621756   9.749034   0.020292  -0.002579  -5.996410  -0.801172  -0.654611  -1.094386  -0.002253  -0.000016  -2.587694  -0.697960   3.036640   8.359721  -0.018206  -0.001955  -7.256010   0.582026   0.086913   1.288019  -0.002509  -0.000155
 -2.378033   0.920834   3.973312   1.545284  -0.177599  -0.095965  -0.699375   0.056246  -0.347352   0.400969  -0.880019   0.009889  -1.212168   0.532142   0.342937   1.073540  -1.917333  10.813919   4.164652   0.802964  21.532187   0.008907   0.693921  -0.001427   2.444340   0.331371  -2.292027   1.245599   1.277800 -11.923405   5.536258  -1.284575 -18.424853   0.006339  -0.341987   0.001531   2.599705  -0.910920   2.180761  -7.450827   0.590571  -2.974866  11.348955   0.022306  -0.005109  -6.483902  -0.922815  -0.645307  -1.012266  -0.001475  -0.000182  -2.726069  -0.735108   3.695399   8.814033  -0.016773  -0.001229  -7.857296   0.697401   0.063454   1.357997  -0.002331  -0.000054
 -2.378255   0.916148   3.972425   1.702463  -0.140356  -0.200510  -0.533059  -0.007297  -0.279774   0.378468  -0.993562   0.034262  -1.433376   0.561841   0.322418   1.178068  -1.965070  11.742066   4.573674   0.966641  23.553249   0.006973   0.687982  -0.001101   2.696769   0.323640  -1.342555   1.285361   1.288010 -12.752359   5.861567  -1.584654 -20.289314   0.006814  -0.415549   0.001722   2.840764  -1.079350   1.237519  -8.486072   0.536284  -3.308056  12.840614   0.023184  -0.006488  -6.938243  -1.036061  -0.637752  -0.932555  -0.000878  -0.000280  -2.881485  -0.771597   4.319617   9.210697  -0.015204  -0.000575  -8.419675   0.805413   0.042782   1.421469  -0.002139   0.000035
 -2.378518   0.915287   3.971937   1.699185  -0.285037   0.161969  -0.282979  -0.000560  -0.607155   0.416340  -1.051014  -0.091508  -1.627959   0.592272   0.292447   1.254908  -1.966234  12.854260   4.934583   1.166346  25.512522   0.005664   0.691237  -0.000894   2.940648   0.330390  -0.616485   1.320661   1.292764 -13.647874   6.155139  -1.873663 -22.010942   0.006988  -0.480485   0.001814   3.069174  -1.199087   0.606836  -9.373835   0.376025  -3.726860  14.431922   0.018235  -0.011681  -7.202703  -1.216511  -0.494583  -0.775366  -0.000809  -0.001049  -3.263890  -0.728548   3.978735   9.963444  -0.012390  -0.000852  -8.681903   0.890072  -0.294963   1.089065  -0.002628   0.000051
 -2.379070   0.914729   3.971827   1.692123  -0.438703   0.337156  -0.092791  -0.010253  -0.715194   0.450305  -1.109370  -0.175222  -1.801864   0.619833   0.252429   1.330384  -1.978191  13.733128   5.267452   1.356824  27.298758   0.004665   0.696902  -0.000736   3.175848   0.376639   0.163728   1.360096   1.309474 -14.392828   6.423258  -2.146703 -23.623341   0.006891  -0.543227   0.001832   3.288426  -1.344091  -0.097238 -10.129821   0.327930  -3.890075  15.742566   0.013733  -0.012892  -7.600093  -1.310504  -0.497991  -0.657955  -0.000652  -0.001224  -3.549002  -0.699601   3.835200  10.604683  -0.010178  -0.001156  -9.003124   1.000695  -0.380019   1.004629  -0.002144   0.000038
 -2.379835   0.914259   3.971914   1.695870  -0.586004   0.444549   0.067077  -0.031179  -0.760409   0.467272  -1.173546  -0.216851  -1.969289   0.645105   0.223263   1.405336  -1.997952  14.462852   5.576531   1.532985  28.906745   0.003785   0.699418  -0.000596   3.399188   0.416728   0.844655   1.397989   1.326597 -15.014714   6.668363  -2.403019 -25.082886   0.006548  -0.600800   0.001790   3.496405  -1.486063  -0.730264 -10.849156   0.284601  -3.962529  16.946734   0.009943  -0.013167  -7.976230  -1.395297  -0.501019  -0.578431  -0.000544  -0.001215  -3.789955  -0.674284   3.775648  11.164358  -0.008453  -0.001333  -9.317496   1.110329  -0.435603   1.003850  -0.001715   0.000031
 -2.380852   0.913586   3.971954   1.654498  -0.680003   0.563111   0.350011  -0.087019  -0.867485   0.400579  -1.198546  -0.225983  -2.129954   0.612940   0.181395   1.469906  -2.053104  14.857484   5.877436   1.655958  30.191396   0.005290   0.850080  -0.000935   3.570520   0.492198   1.958214   1.448602   1.340194 -15.239310   6.791761  -2.755520 -26.240140   0.008895  -0.902903   0.002866   3.683484  -1.479373  -1.773343 -11.359827   0.286827  -4.022837  17.680464   0.007284  -0.011511  -8.257843  -1.420500  -0.512534  -0.401729  -0.000516  -0.001236  -4.078788  -0.663051   3.714227  11.892378  -0.007206  -0.001322  -9.692751   1.174029  -0.412152   0.831587  -0.001250   0.000020
